<svg width="335" height="185" viewBox="0 0 335 185" fill="none" xmlns="http://www.w3.org/2000/svg">
<path d="M207.086 34.5398C210.931 28.3952 215.044 20.8185 218.222 12.757C221.839 3.55184 223.481 -6.09469 224.082 -15.8779C225.08 -32.3635 221.737 -48.0208 214.428 -62.7861C208.177 -75.5017 200.239 -86.9855 189.956 -96.7701C184.174 -102.284 178.026 -107.32 171.088 -111.319C164.808 -114.953 158.152 -117.819 151.043 -119.43C146.438 -120.497 141.789 -120.759 137.133 -119.718C135.06 -119.271 133.104 -118.451 131.219 -117.466C127.273 -115.313 125.106 -111.952 124.297 -107.656C123.825 -104.987 123.935 -102.299 124.39 -99.6857C125.274 -94.4169 126.946 -89.3542 129.347 -84.5936C131.446 -80.5633 133.683 -76.5628 135.713 -72.5175C139.699 -64.7725 143.615 -57.0126 147.477 -49.1686C149.48 -45.0814 151.126 -40.8085 152.591 -36.5328C155.697 -27.3326 156.908 -17.868 156.431 -8.18367C156.013 -0.0668737 153.744 7.50956 149.985 14.7204C144.434 25.3551 136.434 33.5175 126.169 39.5653C124.534 40.5329 122.8 41.3771 121.051 42.1523C110.308 46.821 99.0507 49.612 87.3519 50.6905C77.2871 51.6333 67.3413 51.285 57.3304 50.3C49.4994 49.5314 41.6292 48.9159 33.8281 48.2855C30.441 48.0041 27.0174 48.0561 23.6655 48.2732C22.7375 48.3289 21.8542 48.5918 21.0996 49.1163C19.837 49.9672 18.5744 50.8182 17.2699 51.6421C15.5263 52.7777 14.3858 54.3616 13.6531 56.3275C11.3344 62.5045 11.2078 68.7868 13.6581 74.9468C16.3686 81.81 20.7115 87.5255 26.0284 92.5607C35.4387 101.485 46.7047 106.61 59.5405 108.287C70.1814 109.679 80.7802 109.199 91.2432 107.086C99.9788 105.345 108.452 102.721 116.909 100.028C127.63 96.5937 138.092 92.6363 148.277 87.7265C163.541 80.3828 176.908 70.4476 188.534 58.1404C195.055 51.1649 201.099 43.8224 207.086 34.5398Z" fill="#EA552B"/>
<mask id="mask0_27_269" style="mask-type:alpha" maskUnits="userSpaceOnUse" x="11" y="-121" width="214" height="231">
<path d="M207.086 34.5398C210.931 28.3952 215.044 20.8185 218.222 12.757C221.839 3.55184 223.481 -6.09469 224.082 -15.8779C225.08 -32.3635 221.737 -48.0208 214.428 -62.7861C208.177 -75.5017 200.239 -86.9855 189.956 -96.7701C184.174 -102.284 178.026 -107.32 171.088 -111.319C164.808 -114.953 158.152 -117.819 151.043 -119.43C146.438 -120.497 141.789 -120.759 137.133 -119.718C135.06 -119.271 133.104 -118.451 131.219 -117.466C127.273 -115.313 125.106 -111.952 124.297 -107.656C123.825 -104.987 123.935 -102.299 124.39 -99.6857C125.274 -94.4169 126.946 -89.3542 129.347 -84.5936C131.446 -80.5633 133.683 -76.5628 135.713 -72.5175C139.699 -64.7725 143.615 -57.0126 147.477 -49.1686C149.48 -45.0814 151.126 -40.8085 152.591 -36.5328C155.697 -27.3326 156.908 -17.868 156.431 -8.18367C156.013 -0.0668737 153.744 7.50956 149.985 14.7204C144.434 25.3551 136.434 33.5175 126.169 39.5653C124.534 40.5329 122.8 41.3771 121.051 42.1523C110.308 46.821 99.0507 49.612 87.3519 50.6905C77.2871 51.6333 67.3413 51.285 57.3304 50.3C49.4994 49.5314 41.6292 48.9159 33.8281 48.2855C30.441 48.0041 27.0174 48.0561 23.6655 48.2732C22.7375 48.3289 21.8542 48.5918 21.0996 49.1163C19.837 49.9672 18.5744 50.8182 17.2699 51.6421C15.5263 52.7777 14.3858 54.3616 13.6531 56.3275C11.3344 62.5045 11.2078 68.7868 13.6581 74.9468C16.3686 81.81 20.7115 87.5255 26.0284 92.5607C35.4387 101.485 46.7047 106.61 59.5405 108.287C70.1814 109.679 80.7802 109.199 91.2432 107.086C99.9788 105.345 108.452 102.721 116.909 100.028C127.63 96.5937 138.092 92.6363 148.277 87.7265C163.541 80.3828 176.908 70.4476 188.534 58.1404C195.055 51.1649 201.099 43.8224 207.086 34.5398Z" fill="black"/>
</mask>
<g mask="url(#mask0_27_269)">
<path d="M101.573 -27.0358C101.599 -27.4379 101.64 -27.5906 101.611 -27.7291C101.236 -35.2273 102.761 -42.4278 104.993 -49.5201C107.691 -58.2223 111.222 -66.5534 115.03 -74.7607C117.89 -80.899 120.958 -86.8994 124.221 -92.8312C127.277 -98.3602 130.458 -103.807 134.042 -109.047C137.337 -113.939 141.174 -118.293 145.999 -121.694C155.912 -128.621 166.567 -129.785 177.785 -125.364C187.67 -121.465 195.072 -114.535 200.361 -105.406C207.534 -93.0542 208.971 -79.821 205.614 -66.0426C204.59 -61.866 203.052 -57.9093 201.057 -54.0756C200.947 -53.9088 200.837 -53.742 200.644 -53.4502C200.198 -53.8644 199.753 -54.2785 199.35 -54.6651C191.03 -62.5625 181.663 -68.6954 170.821 -72.5075C163.478 -75.0855 155.946 -76.2903 148.172 -75.498C141.036 -74.7636 134.474 -72.4511 128.808 -67.8686C124.386 -64.2612 121.187 -59.7851 120.003 -54.0969C118.546 -47.271 120.316 -41.0674 124.496 -35.6077C125.875 -33.797 127.573 -32.1955 129.16 -30.4272C129.091 -30.4131 128.855 -30.329 128.647 -30.2866C124.171 -29.9506 121.255 -27.6243 119.858 -23.3354C119.2 -21.2535 118.987 -19.1179 119.064 -16.9695C119.174 -13.6013 119.922 -10.291 121.001 -7.12065C123.483 0.0921979 127.375 6.44015 132.18 12.3133C139.06 20.7568 147.294 27.6981 156.837 32.9292C161.31 35.4073 166.073 37.3574 170.986 38.808C171.374 38.9451 171.721 39.0547 172.096 39.1226C172.166 39.2887 172.222 39.3855 172.208 39.4964C173.169 47.9212 172.993 56.2532 170.779 64.4961C169.371 69.6168 167.199 74.3522 163.902 78.5237C157.735 86.3104 149.682 90.1535 139.756 90.1223C136.651 90.1065 133.6 89.6469 130.644 88.7711C130.38 88.7166 130.102 88.5929 129.824 88.4692C129.851 88.2473 129.809 88.0395 129.878 87.8452C131.89 77.7317 131.893 67.4873 130.717 57.3028C129.484 46.8413 126.95 36.7176 122.837 26.988C120.627 21.8119 117.919 16.8457 114.325 12.4928C112.083 9.81203 109.551 7.479 106.481 5.68866C104.966 4.80727 103.287 4.17605 101.567 3.87767C97.1278 3.16001 93.5574 4.75406 90.7564 8.17501C88.6728 10.6921 87.5058 13.6355 86.6307 16.7718C85.1694 22.5165 85.0948 28.339 85.8519 34.1722C87.1514 44.079 90.6383 53.2148 95.6065 61.8321C99.4582 68.5129 104.25 74.497 110.023 79.6317C114.766 83.7861 119.963 87.1624 125.836 89.4272C126.224 89.5643 126.544 89.7156 126.974 89.8803C126.934 90.2131 126.879 90.4767 126.825 90.7403C125.541 95.7635 123.633 100.553 120.599 104.779C113.787 114.177 104.557 118.44 93.0056 117.334C86.8622 116.747 81.377 114.259 76.3455 110.813C72.398 108.084 68.9616 104.853 65.87 101.191C65.6333 100.915 65.3966 100.638 65.2291 100.348C66.1381 98.7919 67.0611 97.3051 67.9425 95.7907C71.4815 89.6221 74.0347 83.0415 75.7271 76.1314C78.1971 65.9607 78.9895 55.6994 77.4801 45.2944C76.7257 40.182 75.3897 35.2244 73.029 30.5479C71.4928 27.615 69.6387 24.8912 66.9971 22.9051C65.9682 22.105 64.815 21.4025 63.5931 20.8942C59.6222 19.2876 55.5925 20.3982 52.528 23.7647C50.2225 26.255 48.8477 29.2407 47.7648 32.4194C47.4905 33.1967 47.077 33.8221 46.4692 34.379C41.4413 39.0838 37.4007 44.5612 34.1387 50.6732C28.6058 61.0359 25.7095 72.1232 25.505 83.8517C25.4155 89.4248 26.0186 94.8566 27.6889 100.215C28.868 104.05 30.5455 107.676 33.288 110.687C37.2833 115.066 42.127 116.531 47.8458 114.86C51.6261 113.764 54.8198 111.561 57.7486 108.944C59.724 107.134 61.5602 105.172 63.1462 103.045C63.436 102.698 63.6982 102.392 64.0431 101.961C64.4049 102.32 64.6834 102.624 65.0035 102.955C68.4427 106.907 72.3102 110.482 76.7156 113.335C82.3718 117.014 88.5221 119.403 95.3432 119.598C107.959 119.91 117.476 114.398 124.061 103.712C126.279 100.086 127.816 96.1291 128.923 92.0076C129.019 91.5914 129.183 91.161 129.334 90.6614C129.792 90.7844 130.208 90.8798 130.624 90.9753C137.243 92.6549 143.842 92.8237 150.35 90.7747C158.118 88.3605 163.893 83.431 168.123 76.5806C172.339 69.841 174.251 62.4172 174.955 54.5545C175.34 50.0754 175.254 45.5842 174.848 41.1221C174.833 40.6924 174.776 40.2351 174.746 39.7362C175.273 39.8451 175.717 39.8988 176.133 39.9943C181.751 41.0124 187.409 41.3372 193.074 40.2896C208.229 37.4866 218.19 28.6734 222.722 13.934C224.954 6.66141 225.133 -0.769595 224.176 -8.29327C222.733 -19.4332 218.535 -29.5783 212.441 -38.9399C209.666 -43.1711 206.587 -47.124 203.163 -50.826C202.968 -51.0748 202.745 -51.2819 202.467 -51.5858C203.155 -52.9885 203.884 -54.3637 204.502 -55.7523C213.219 -74.5557 211.646 -98.0051 196.567 -115.164C190.928 -121.589 184.103 -126.401 175.873 -128.906C163.257 -132.753 151.871 -130.214 141.771 -121.733C138.44 -118.961 135.611 -115.679 133.171 -112.079C129.767 -107.02 126.626 -101.726 123.68 -96.3641C119.302 -88.4733 115.3 -80.3345 111.797 -72.0451C108.17 -63.478 104.918 -54.843 102.762 -45.7825C101.412 -40.0244 100.686 -34.2132 101.207 -28.2959C101.222 -28.0464 101.251 -27.7277 101.266 -27.4782C101.322 -27.3814 101.363 -27.3538 101.573 -27.0358ZM144.339 -23.2077C144.936 -23.1129 145.296 -23.1143 145.601 -23.0323C150.152 -22.121 154.7 -21.9305 159.328 -22.4058C168.847 -23.482 177.401 -26.9944 185.184 -32.5138C191.267 -36.8207 196.321 -42.1079 200.4 -48.2785C200.621 -48.6121 200.91 -48.9598 201.186 -49.3767C201.506 -49.0452 201.77 -48.8106 201.993 -48.6035C203.734 -46.4338 205.641 -44.334 207.286 -42.1084C214.17 -32.7638 219.02 -22.4271 221.046 -10.9013C222.336 -3.69768 222.447 3.56584 220.811 10.7529C219.407 16.9549 216.794 22.5376 212.529 27.2673C207.849 32.4421 202.053 35.6805 195.323 37.3421C188.523 39.0179 181.687 38.753 174.903 37.3235C174.75 37.2825 174.625 37.1998 174.5 37.1171C174.444 37.0203 174.389 36.9235 174.374 36.8542C174.332 36.6465 174.276 36.3694 174.233 36.1616C172.129 22.4874 167.505 9.72391 160.722 -2.31044C157.037 -8.88098 152.688 -14.9915 147.372 -20.3636C146.44 -21.2195 145.466 -22.103 144.339 -23.2077ZM199.46 -51.297C199.171 -50.7691 198.937 -50.3246 198.647 -49.9769C197.185 -47.9473 195.738 -45.8486 194.151 -43.9017C187.307 -35.7242 178.79 -29.9108 168.655 -26.7251C157.606 -23.2448 146.751 -23.2308 136.167 -28.6104C131.417 -31.0319 127.537 -34.3163 124.705 -38.8246C119.935 -46.4723 120.456 -55.2354 126.043 -62.3268C128.968 -66.0254 132.645 -68.6873 136.907 -70.6029C142 -72.8681 147.361 -73.8175 152.892 -73.7556C161.973 -73.6241 170.411 -70.9811 178.495 -66.8949C184.773 -63.703 190.458 -59.7047 195.647 -54.9559C196.9 -53.7685 198.124 -52.5394 199.46 -51.297ZM127.548 87.7433C127.09 87.6202 126.868 87.5934 126.632 87.4972C122.329 85.8503 118.355 83.5228 114.685 80.7366C109.86 77.0677 105.657 72.731 102.062 67.8375C94.4252 57.4561 89.4601 46.0247 87.8166 33.1943C87.188 28.3448 87.2386 23.465 88.2044 18.651C88.8442 15.5988 89.8451 12.7254 91.6234 10.1263C94.4633 6.01207 98.5891 4.66542 103.267 6.38026C106.238 7.50558 108.685 9.42307 110.843 11.6882C114.42 15.4312 117.043 19.8017 119.251 24.4372C122.843 31.9646 125.216 39.8849 126.799 48.0022C128.949 59.0701 129.685 70.2821 128.412 81.5434C128.253 83.5956 127.873 85.621 127.548 87.7433ZM171.684 36.5734C171.268 36.478 170.893 36.4102 170.588 36.3281C166.133 35.0006 161.843 33.2427 157.745 31.0127C148.299 25.906 140.301 19.0609 133.588 10.7275C129.13 5.14419 125.406 -0.913282 123.051 -7.68301C121.901 -11.0195 121.125 -14.4683 121.126 -18.0032C121.091 -19.7636 121.348 -21.5113 121.979 -23.1911C123.255 -26.6616 126.02 -28.4882 129.681 -28.225C130.86 -28.1048 132.095 -27.8878 133.191 -27.4622C136.19 -26.3786 138.899 -24.7671 141.361 -22.7803C144.851 -19.9935 147.885 -16.7891 150.588 -13.2645C161.679 1.31787 168.52 17.7048 171.611 35.6865C171.654 35.8943 171.641 36.1855 171.684 36.5734ZM50.5585 30.7313C51.7807 27.7045 53.378 24.9259 56.3103 23.2095C58.5924 21.8422 60.9909 21.9301 63.3103 23.044C64.0325 23.4017 64.8105 23.8562 65.4501 24.3389C67.5354 25.8973 69.0681 27.9293 70.352 30.1562C72.4316 33.8079 73.7358 37.726 74.6111 41.8398C76.1928 49.4165 76.347 57.0681 75.4616 64.7513C74.2544 75.2776 71.3815 85.242 66.2048 94.522C65.4337 95.8696 64.6209 97.1897 63.8081 98.5098C63.6413 98.3995 63.5304 98.3861 63.4887 98.3585C63.1544 97.9578 62.8202 97.557 62.5552 97.1422C52.3522 82.6673 47.1889 66.5511 47.1069 48.8213C47.0882 43.9556 47.7211 39.1013 49.1031 34.3827C49.3223 33.6887 49.6665 33.0775 50.2608 32.6316C51.5047 31.6564 52.7345 30.612 53.9642 29.5676C54.213 29.3726 54.3508 29.1641 54.5996 28.9691C52.9777 28.9753 51.9423 30.0883 50.5585 30.7313ZM62.5945 100.164C62.4567 100.373 62.3881 100.567 62.2779 100.734C59.4507 104.557 56.2618 108.021 52.321 110.628C50.1916 112.036 47.9081 113.043 45.4007 113.483C41.7017 114.093 38.4679 113.093 35.6441 110.567C33.6132 108.745 32.1491 106.519 31.003 104.084C29.368 100.666 28.4114 97.0377 27.8979 93.2829C26.6449 84.6652 27.3608 76.1509 29.4632 67.7144C32.2619 56.5027 37.2832 46.4608 44.9714 37.8226C45.4132 37.3357 45.8549 36.8489 46.3383 36.3895C44.1502 47.7652 44.9415 58.8938 47.8395 69.9172C50.71 80.9824 55.5868 91.0972 62.5945 100.164Z" fill="#333333"/>
</g>
<path d="M125.096 82.0372C125.096 78.8384 125.296 75.6395 125.846 72.4907C126.695 67.6424 128.694 63.344 131.743 59.5454C133.993 56.7464 136.542 54.2973 139.241 51.9982C145.988 46.3003 153.585 41.8519 161.532 38.0533C172.478 32.9051 183.924 29.5564 195.87 27.907C200.368 27.3072 204.917 26.7074 209.465 26.6075C214.813 26.5075 220.111 27.0073 225.209 28.6067C226.709 29.1065 228.208 29.7063 229.658 30.4061C233.206 32.2054 235.955 34.9044 237.805 38.4531C239.604 41.9019 241.353 45.3506 242.603 49.0492C242.703 49.3491 242.803 49.649 242.953 49.9489C245.652 55.3969 247.201 61.2448 248.701 67.0926C250.8 75.1897 253.549 83.0868 256.198 90.9839C258.247 97.0817 260.196 103.229 261.496 109.527C262.346 113.776 262.945 118.024 262.995 122.372C263.045 125.971 262.595 129.57 261.596 133.019C259.097 141.765 254.848 149.562 248.351 156.01C245.702 158.659 242.753 160.908 239.404 162.608C237.755 163.457 236.055 164.257 234.356 165.057C228.358 167.856 222.36 170.555 216.412 173.404C207.915 177.402 199.219 180.701 190.122 183C186.573 183.9 182.925 184.35 179.226 184.35C174.078 184.35 169.38 182.95 165.131 180.001C158.733 175.553 153.236 170.205 148.937 163.657C145.438 158.309 142.639 152.611 140.29 146.714C134.892 133.019 130.794 118.974 128.045 104.529C126.995 99.1309 126.095 93.6829 125.546 88.1849C125.346 86.1357 125.246 84.0864 125.096 82.0372Z" fill="white"/>
<path fill-rule="evenodd" clip-rule="evenodd" d="M200.628 164.539C200.442 168.197 197.942 170.096 194.469 169.077C193.034 168.661 192.107 167.734 191.691 166.299C191.228 164.632 191.367 162.965 192.154 161.436C192.987 159.862 194.284 158.889 196.136 158.936C197.942 158.982 199.192 160.047 199.84 161.668C200.143 162.34 200.299 163.061 200.45 163.759C200.507 164.024 200.564 164.285 200.628 164.539ZM235.588 73.9576C235.588 74.0502 235.588 74.3281 235.542 74.5596C235.264 75.3469 235.171 76.1805 235.171 77.0603C235.171 78.1718 234.199 79.0053 233.041 79.0517C232.532 79.0517 231.976 78.959 231.559 78.7738C230.078 78.0791 228.689 77.1993 227.623 75.9489C225.447 73.4945 226.42 69.4656 229.476 68.3078C231.096 67.6595 232.81 68.1226 234.014 69.4656C234.893 70.4844 235.588 72.3368 235.588 73.9576ZM216.742 49.8767C217.483 49.1357 217.76 48.2095 217.76 47.6075C217.76 45.1068 216.603 43.0228 214.936 42.0503C212.852 40.8463 210.491 41.4946 209.333 43.6249C207.666 46.6813 209.611 50.8955 212.991 51.6364C214.288 51.9143 215.399 51.6364 216.232 50.4787C216.371 50.2471 216.557 50.0619 216.742 49.8767ZM149.645 83.4974C149.692 83.2813 149.728 83.06 149.764 82.8388C149.836 82.3963 149.908 81.9537 150.062 81.5524C151.081 78.8201 154.276 78.1255 156.36 80.2094C157.425 81.2282 157.842 82.5712 158.027 84.0068C158.073 84.4236 158.166 84.8867 158.305 85.3035C158.953 86.9706 158.305 88.4062 156.591 88.9619C154.461 89.7029 151.637 88.6377 150.525 86.6927C149.97 85.7202 149.692 84.6551 149.645 83.4974ZM243.498 142.363C243.518 142.257 243.536 142.161 243.552 142.079C243.506 140.134 243.182 138.745 242.21 137.633C241.191 136.429 239.848 135.873 238.274 136.151C236.699 136.429 235.681 137.448 235.171 138.976C234.245 141.708 235.727 144.996 238.644 145.645C238.737 145.676 238.829 145.701 238.922 145.727C239.107 145.779 239.292 145.83 239.478 145.923C240.774 146.478 242.395 145.923 243.043 144.255C243.272 143.57 243.406 142.854 243.498 142.363ZM164.185 62.6581C164.185 60.7594 165.158 59.2775 166.732 58.7681C168.168 58.2587 169.649 58.7218 170.714 59.9721C171.918 61.454 172.428 63.1675 172.381 65.0199C172.335 66.3628 171.594 67.4743 170.807 68.4931C170.298 69.1414 169.51 69.3266 168.677 69.1877C168.214 69.0951 167.751 68.9099 167.38 68.632C165.713 67.5206 164.185 64.6957 164.185 62.6581ZM243.182 109.06L243.182 108.597C243.136 106.513 242.487 104.661 240.635 103.457C239.385 102.623 238.042 102.438 236.653 103.133C235.31 103.827 234.708 105.031 234.662 106.467C234.569 108.921 235.819 110.727 237.857 112.024C238.042 112.163 238.227 112.256 238.459 112.302C240.82 113.043 243.043 111.515 243.182 109.06ZM181.457 60.991C181.385 60.829 181.327 60.66 181.27 60.4922C181.179 60.2282 181.089 59.9671 180.948 59.7406C180.3 58.6755 179.79 57.6104 179.744 56.3137C179.698 54.9244 180.207 53.8593 181.457 53.211C182.707 52.5626 183.911 52.7942 184.976 53.6278C186.227 54.5539 186.829 55.8969 187.106 57.4251C187.23 58.1043 187.312 58.7834 187.395 59.4626L187.395 59.4628C187.436 59.8024 187.477 60.142 187.523 60.4816C187.616 61.1299 187.477 61.8245 186.968 62.195L186.89 62.2508C186.08 62.8366 185.226 63.4539 184.328 63.7232C182.615 64.2326 181.04 62.7507 181.457 60.991ZM182.291 92.0646C183.541 90.6754 184.282 89.0545 184.235 87.48C184.282 85.8592 184.05 84.8404 183.587 84.0068C182.846 82.7564 181.55 82.1544 180.207 82.3396C178.54 82.5712 177.012 83.9605 176.688 85.6276C176.317 87.5263 176.78 89.2398 177.938 90.768C178.077 90.9531 178.204 91.1268 178.331 91.3004L178.332 91.3016C178.459 91.4749 178.587 91.6482 178.725 91.8331C179.651 93.1761 181.179 93.2687 182.291 92.0646ZM212.713 68.1689C209.703 68.6783 207.249 65.1588 207.99 62.2413C208.592 59.8795 210.954 58.7218 213.176 59.6943C215.399 60.6668 216.834 63.6306 216.14 65.9924C215.816 67.289 214.704 68.5394 212.713 68.1689ZM150.247 108.505C151.035 107.254 151.451 105.865 151.405 104.383C151.405 103.272 151.174 102.253 150.618 101.327C149.784 99.9373 148.442 99.2426 147.006 99.4742C145.617 99.6594 144.459 100.771 144.228 102.392C143.811 104.939 144.737 107.162 146.404 109.014C147.562 110.311 149.321 109.986 150.247 108.505ZM221.928 92.9909C221.856 92.8289 221.798 92.6599 221.74 92.4921C221.65 92.2281 221.56 91.967 221.419 91.7405C220.724 90.5365 220.4 89.2861 220.631 87.8968C220.817 86.6928 221.465 85.7666 222.669 85.3961C223.919 84.9793 224.984 85.3961 225.864 86.3223C226.651 87.2022 227.068 88.2673 227.346 89.3787C227.485 89.9344 227.67 90.4902 227.948 90.9996C228.55 92.2962 228.225 93.5003 227.068 94.2875C226.836 94.4265 226.616 94.5885 226.396 94.7506C226.176 94.9127 225.957 95.0748 225.725 95.2137C224.845 95.7694 223.919 95.862 222.993 95.3526C222.113 94.8432 221.743 94.056 221.928 92.9909ZM169.927 159.491C168.677 160.14 168.214 161.251 168.168 162.455C168.121 164.493 169.51 166.808 171.316 168.198C173.169 169.633 175.484 168.707 175.762 166.345C175.901 165.28 175.854 164.122 175.669 163.057C175.437 161.714 174.743 160.556 173.585 159.769C172.428 158.982 171.177 158.797 169.927 159.491ZM201.415 83.4048C201.415 83.7598 201.42 84.1149 201.425 84.4699C201.435 85.18 201.446 85.8901 201.415 86.6001C201.322 88.0357 199.979 88.9619 198.544 88.4988C197.942 88.3136 197.386 87.9894 196.923 87.5726C195.858 86.6001 195.117 85.4424 194.562 84.0994C194.145 83.0806 194.052 82.0155 194.469 80.9504C194.932 79.6074 195.858 78.7738 197.247 78.5423C198.683 78.3107 199.794 78.8665 200.628 80.0242C201.322 81.043 201.554 82.2007 201.415 83.4048ZM157.24 137.957C155.526 138.652 154.415 140.412 154.415 142.357C154.415 144.255 155.434 145.83 156.962 146.339C158.582 146.941 160.435 146.339 161.546 144.95C162.796 143.376 162.75 140.458 161.453 138.93C160.435 137.726 158.768 137.355 157.24 137.957ZM202.202 125.593C202.202 124.805 202.387 123.972 202.85 123.277C204.147 121.24 206.786 121.054 208.314 122.907C209.426 124.25 209.75 125.871 209.703 127.584C209.703 127.966 209.625 128.348 209.547 128.73C209.521 128.858 209.495 128.985 209.472 129.112C209.055 131.057 207.342 131.844 205.536 130.965C203.684 130.131 202.202 127.723 202.202 125.593ZM183.993 143.049C183.951 143.189 183.909 143.328 183.865 143.468C184.004 144.765 184.56 145.784 185.625 146.664C185.693 146.722 185.766 146.781 185.839 146.84L185.839 146.84C186.114 147.063 186.405 147.297 186.551 147.59C187.338 148.979 189.514 149.257 190.857 147.543C192.293 145.691 192.339 142.82 190.903 140.921C189.144 138.606 186.088 138.791 184.652 141.292C184.352 141.855 184.173 142.449 183.993 143.049ZM158.907 119.573C158.953 117.905 159.647 116.423 161.176 115.451C163.213 114.108 165.76 114.942 166.547 117.211C167.519 119.943 166.501 122.629 163.259 123.648C162.009 124.065 160.851 123.648 159.972 122.629C159.231 121.795 158.953 120.777 158.907 119.573ZM181.078 114.687C181.011 114.947 180.943 115.206 180.855 115.451C180.948 117.952 183.68 120.777 186.134 120.777C187.662 120.823 188.866 119.711 188.773 118.276C188.727 117.396 188.634 116.516 188.449 115.636C188.171 114.247 187.523 113.043 186.319 112.256C184.606 111.098 182.43 111.607 181.503 113.46C181.302 113.834 181.19 114.262 181.078 114.687ZM206.184 150.322C206.184 148.747 206.971 147.451 208.268 146.941C209.564 146.432 211.046 146.802 212.065 147.96C213.454 149.581 213.871 151.48 213.454 153.564C213.269 154.351 212.852 154.999 212.25 155.509C210.954 156.481 209.287 156.157 208.407 154.814C208.129 154.397 207.805 153.98 207.481 153.564C206.601 152.545 206.184 151.526 206.184 150.322ZM229.258 132.172L229.258 132.172L229.258 132.172C229.305 131.989 229.346 131.831 229.383 131.706C229.291 129.668 228.874 128.279 227.67 127.26C225.864 125.685 223.317 126.287 222.437 128.464C221.882 129.9 222.067 131.242 222.993 132.447C223.363 132.956 223.641 133.419 223.78 134.021C224.104 135.318 225.401 136.012 226.744 135.642C227.624 135.41 228.318 134.808 228.689 133.975C228.959 133.332 229.131 132.665 229.258 132.172ZM200.859 107.717C200.859 106.837 201.091 105.958 201.693 105.124C202.989 103.457 205.304 103.318 206.879 104.846C208.361 106.282 208.777 108.875 207.851 110.727C207.249 111.931 206.184 112.487 204.841 112.302C204.795 112.302 204.76 112.29 204.726 112.279C204.691 112.267 204.656 112.256 204.61 112.256C202.063 111.885 200.859 110.45 200.859 107.717ZM172.844 102.716L172.844 99.7984C172.844 98.9185 172.567 97.7607 171.64 96.8345C170.112 95.3063 167.705 95.7694 166.871 97.7144C165.945 99.8447 167.612 103.874 169.742 104.753C171.316 105.402 172.844 104.383 172.844 102.716Z" fill="#333333"/>
<path d="M313.987 37.5468C312.813 36.8131 311.932 36.3728 311.199 35.639C308.997 33.291 306.943 30.943 304.888 28.4482C302.1 25.2196 299.605 21.9911 296.817 18.7625C294.616 16.2677 294.469 15.5339 296.083 12.5989C300.339 4.38075 306.209 -2.81012 311.639 -10.2945C312.373 -11.3218 313.4 -12.2023 314.427 -13.0828C316.482 -14.5503 318.389 -14.2568 319.857 -12.2023C324.553 -4.86465 329.102 2.47297 333.652 9.8106C335.706 13.1859 335.413 13.7729 332.771 16.5612C329.102 20.3768 325.434 24.1923 322.058 28.1547C320.15 30.356 318.536 32.8507 316.775 35.052C315.895 36.0793 315.014 36.6663 313.987 37.5468ZM316.628 -8.68022C310.465 -0.755584 305.915 7.46256 300.926 15.0937C305.328 20.817 309.438 26.2469 313.693 31.6767C319.563 25.0729 324.993 18.7625 330.863 12.1586C326.167 5.40802 321.618 -1.34259 316.628 -8.68022Z" fill="#333333"/>
</svg>
