<svg width="288" height="415" viewBox="0 0 288 415" fill="none" xmlns="http://www.w3.org/2000/svg">
<path fill-rule="evenodd" clip-rule="evenodd" d="M351.72 1.53561C350.319 8.34676 345.653 9.60664 341.922 10.6139L341.878 10.6257C341.767 10.6558 341.656 10.6856 341.547 10.7154C323.434 16.5803 305.321 22.4452 286.772 27.5684C269.814 32.2745 252.847 36.8578 235.881 41.4411C210.432 48.3159 184.983 55.1908 159.562 62.4802C130.804 70.6146 105.18 85.0919 83.0459 105.502C68.9123 118.809 56.4454 133.931 48.4111 151.836C29.2543 193.256 31.2384 233.618 55.8729 272.434C72.7061 298.669 96.3616 317.496 123.952 331.812C153.104 346.406 184.55 355.059 216.659 362.123C260.853 371.063 305.5 375.343 350.365 371.509C351.126 371.457 351.91 371.38 352.7 371.302C355.095 371.066 357.544 370.824 359.605 371.264C361.96 371.874 365.189 373.968 365.704 375.861C366.245 378.139 364.971 382.082 363.157 383.749C360.984 385.826 357.224 387.24 354.205 388.217C338.701 392.747 322.629 394.615 306.811 394.538C247.401 394.352 189.997 384 134.521 362.331C103.222 350.197 75.3964 332.427 52.8309 306.969C16.4957 266.251 5.21001 219.582 17.822 167.038C24.4595 139.971 39.8836 117.32 58.9463 97.1192C87.3878 67.4075 121.99 48.8461 161.008 38.4684C192.102 30.0113 224.011 22.9385 255.601 15.9362L258.929 15.1986C279.483 10.4397 300.47 6.73263 321.124 3.08428L323.258 2.70727C329.348 1.52014 335.49 1.10081 341.632 0.68148L341.633 0.68143C344.178 0.507731 346.758 0.860973 349.781 1.27481C350.252 1.33929 350.734 1.40523 351.228 1.47088C351.39 1.49251 351.554 1.51411 351.72 1.53561ZM356.603 78.7262C355.676 79.1482 354.753 79.6439 353.82 80.1457C351.741 81.2625 349.608 82.4089 347.242 82.8366C326.005 88.1434 304.768 93.4501 283.506 98.3729C275.59 100.114 267.626 101.792 259.644 103.473C234.291 108.815 208.761 114.194 184.049 121.748C145.163 134.045 115.124 157.309 96.778 193.659C92.6953 201.652 89.7905 209.95 87.6798 218.579C84.3742 232.304 88.3103 244.763 97.5163 255.32C107.569 266.976 119.357 275.813 132.603 283.394C155.891 296.847 181.779 303.179 208.199 306.003C236.565 309.081 265.315 312.132 293.602 314.058C303.778 314.81 313.865 314.266 323.952 313.722C327.315 313.54 330.677 313.359 334.043 313.226C336.346 313.068 338.643 312.815 340.94 312.562C343.237 312.309 345.534 312.055 347.837 311.898C353.212 311.531 356.467 314.009 357.907 318.153C358.963 322.324 357.742 327.036 353.266 329.27C348.049 331.94 342.395 333.869 336.662 334.646C315.321 338.417 293.691 337.965 272.314 335.567C264.119 334.678 255.895 333.855 247.668 333.032L247.667 333.032L247.667 333.032C227.418 331.006 207.144 328.977 187.191 325.951C159.541 322.053 133.443 312.65 110.355 296.484C102.257 290.866 94.0811 284.096 87.0567 277.247C63.9593 255.297 58.6695 228.659 69.7828 199.359C83.8533 162.529 107.33 133.542 142.674 114.544C162.776 103.915 183.855 96.3051 205.965 92.4815C242.531 85.7425 279.124 79.3874 316.153 73.7739C325.044 72.5256 334.292 72.5856 343.584 72.6458L343.584 72.6458C345.471 72.658 347.36 72.6703 349.247 72.6716C349.613 72.7369 349.983 72.7913 350.352 72.8457C353.143 73.2562 355.917 73.6644 356.603 78.7262ZM185.024 282.902C220.998 290.088 257.679 290.669 294.176 288.563C299.976 288.167 305.799 288.114 311.948 288.057C312.31 288.054 312.674 288.05 313.04 288.047C320.308 287.165 327.576 286.283 334.791 284.634C342.007 282.984 344.842 279.319 344.501 274.328C343.777 269.364 340.112 266.528 332.765 266.259C328.132 266.189 323.142 266.53 318.151 266.871L318.151 266.871C283.189 268.872 248.454 268.543 213.867 264.733C192.107 262.362 170.573 257.661 150.975 247.428C144.98 244.366 139.291 240.126 134.37 235.834C128.192 230.084 126.9 222.459 131.009 214.85C133.382 210.06 136.496 204.833 140.92 201.831C148.257 196.316 155.647 191.569 163.909 188.305C176.674 183.191 189.517 179.229 202.822 176.392C226.159 171.713 249.518 167.376 272.878 163.038C284.558 160.87 296.238 158.701 307.915 156.489C311.344 155.87 315.131 154.84 318.507 153.452C320.374 152.553 322.521 150.093 322.39 148.173C322.642 146.227 320.513 143.287 318.541 142.65C314.571 140.993 310.27 140.13 306.02 140.034C303.508 140.038 300.975 140.007 298.432 139.976C289.263 139.864 279.961 139.75 271.006 141.267C242.781 145.894 214.582 150.905 186.845 157.041C169.369 160.934 152.408 166.72 137.244 176.241C126.146 183.169 116.715 191.913 110.975 203.876C102.504 221.039 105.219 238.21 118.474 251.575C123.858 256.993 130.751 261.922 137.566 265.7C152.426 274.328 168.201 279.422 185.024 282.902Z" fill="#333333"/>
</svg>
