<svg width="194" height="40" viewBox="0 0 194 40" fill="none" xmlns="http://www.w3.org/2000/svg">
<path d="M62.5454 11.6437H70.0581C74.3854 11.6437 76.8872 14.3128 76.8872 18.0946C76.8872 21.8982 74.3418 24.5091 69.9563 24.5091H66.5745V30.5455H62.5454V11.6437ZM69.309 21.2873C71.6145 21.2873 72.7418 19.9855 72.7418 18.0946C72.7418 16.1964 71.6145 14.9309 69.2945 14.9309H66.5818V21.28H69.309V21.2873Z" fill="#F2F2F2"/>
<path d="M82.08 30.5455H78.1163L78.1163 11.6364H82.08V30.5455Z" fill="#F2F2F2"/>
<path d="M83.2655 26.6982C83.2655 23.5054 85.8037 22.56 88.6327 22.2982C91.1127 22.0582 92.0946 21.9345 92.0946 21.0182V20.96C92.0946 19.7891 91.3237 19.1127 89.9709 19.1127C88.5455 19.1127 87.7018 19.8109 87.4327 20.7564L83.7673 20.4582C84.3127 17.8545 86.5673 16.2182 89.9855 16.2182C93.1637 16.2182 96.0509 17.6509 96.0509 21.0545V30.5455H92.2909V28.7127H92.1818C91.4837 30.0436 90.1164 30.96 88.0073 30.96C85.28 30.96 83.2655 29.5273 83.2655 26.6982ZM92.1164 25.5854V24.0727C91.6437 24.3854 90.2255 24.5964 89.36 24.7127C87.9637 24.9091 87.0473 25.4545 87.0473 26.5745C87.0473 27.6654 87.92 28.2327 89.1418 28.2327C90.88 28.2254 92.1164 27.0836 92.1164 25.5854Z" fill="#F2F2F2"/>
<path d="M97.2509 35.6145L98.1454 32.6473C99.5418 33.0836 100.502 32.9891 101.055 31.7018L101.287 31.0982L96.1672 16.4073H100.335L103.295 26.8945H103.447L106.429 16.4073L110.625 16.4291L105.076 32.24C104.276 34.5309 102.705 36.0218 99.76 36.0218C98.7345 36.0145 97.8181 35.8473 97.2509 35.6145Z" fill="#F2F2F2"/>
<path d="M110.764 32.3636L114.429 31.8691C114.756 32.64 115.636 33.4036 117.389 33.4036C119.113 33.4036 120.364 32.64 120.364 30.7709V28.16H120.196C119.673 29.3382 118.4 30.4873 116.124 30.4873C112.909 30.4873 110.327 28.2764 110.327 23.52C110.327 18.6545 112.974 16.2182 116.109 16.2182C118.502 16.2182 119.658 17.6436 120.189 18.8H120.342V16.4H124.276V30.8218C124.276 34.3854 121.374 36.2473 117.294 36.2473C113.44 36.2473 111.236 34.5236 110.764 32.3636ZM120.378 23.4982C120.378 20.9964 119.302 19.3673 117.374 19.3673C115.411 19.3673 114.371 21.0691 114.371 23.4982C114.371 25.9636 115.433 27.5054 117.374 27.5054C119.28 27.5054 120.378 26.0218 120.378 23.4982Z" fill="#F2F2F2"/>
<path d="M126.124 16.4073H129.964V18.9018H130.109C130.633 17.1346 131.942 16.2036 133.542 16.2036C133.942 16.2036 134.436 16.2618 134.785 16.3418V19.8546C134.415 19.7309 133.658 19.6436 133.113 19.6436C131.367 19.6436 130.08 20.8509 130.08 22.6109V30.5455H126.116V16.4073H126.124Z" fill="#F2F2F2"/>
<path d="M134.996 23.6C134.996 19.1709 137.695 16.2182 142.029 16.2182C146.364 16.2182 149.062 19.1782 149.062 23.6C149.062 28 146.364 30.9673 142.029 30.9673C137.695 30.9673 134.996 28 134.996 23.6ZM145.033 23.5709C145.033 21.0764 144.007 19.2364 142.051 19.2364C140.051 19.2364 139.025 21.0764 139.025 23.5709C139.025 26.0654 140.051 27.8982 142.051 27.8982C144.007 27.8982 145.033 26.0654 145.033 23.5709Z" fill="#F2F2F2"/>
<path d="M159.491 16.4073H163.454V30.5454H159.651V28.0945H159.498C158.858 29.7673 157.316 30.8727 155.164 30.8727C152.291 30.8727 150.334 28.8363 150.327 25.4982V16.4073H154.291V24.7927C154.298 26.4727 155.265 27.5273 156.764 27.5273C158.189 27.5273 159.498 26.5236 159.491 24.6109V16.4073Z" fill="#F2F2F2"/>
<path d="M169.265 30.5455H165.302V16.4073H169.076V18.9236H169.244C169.884 17.2582 171.418 16.2182 173.542 16.2182C176.516 16.2182 178.473 18.2618 178.473 21.5927V30.5455H174.509V22.2982C174.516 20.5527 173.564 19.5054 171.971 19.5054C170.371 19.5054 169.273 20.5818 169.265 22.4291V30.5455Z" fill="#F2F2F2"/>
<path d="M179.738 23.5637C179.738 18.6546 182.385 16.2182 185.52 16.2182C187.913 16.2182 189.054 17.6437 189.585 18.8H189.709V11.6364H193.658V30.5455H189.753V28.3927H189.585C189.04 29.5855 187.84 30.9091 185.527 30.9091C182.276 30.9237 179.738 28.3418 179.738 23.5637ZM189.796 23.5491C189.796 21.0037 188.72 19.3746 186.793 19.3746C184.829 19.3746 183.789 21.0764 183.789 23.5491C183.789 26.0437 184.851 27.7746 186.793 27.7746C188.698 27.7673 189.796 26.0946 189.796 23.5491Z" fill="#F2F2F2"/>
<path d="M31.28 0H0V40H16L16 30.5309H31.28C40.3345 30.5309 46.5455 24.1527 46.5455 15.2655C46.5455 6.37818 40.3345 0 31.28 0Z" fill="#DDDDDD"/>
<path d="M31.28 0H0L0 19.1976H8.33332H31.28C40.3333 19.1976 46.5455 17.3333 46.5455 15.2655C46.5455 6.37818 40.3345 0 31.28 0Z" fill="url(#paint0_linear)"/>
<defs>
<linearGradient id="paint0_linear" x1="46.6667" y1="15.3333" x2="1.76526e-07" y2="15.3333" gradientUnits="userSpaceOnUse">
<stop stop-color="white"/>
<stop offset="1" stop-color="#DDDDDD"/>
</linearGradient>
</defs>
</svg>
