<svg viewBox="0 0 408.62 17.52" xmlns="http://www.w3.org/2000/svg" class="" style=""><path d="m264.7 50.73c1.06-.22 2.15-.68 3.19-.79 4.78-.51 9.46-1.26 14.2-1.43 2.78-.15 5.64 1 8.52.94 14.5 0 28.91-.26 43.43-.5 21.67-.37 43.36-2.12 65-1.12 0 0 7.83.72 10.3 0 7-2.08-23.09-3.89-30.16-4.44-65.59-5-127.48-7.51-188.77-6.56-55 .85-109.67 5.59-164.25 12.23-4.79.62-9.45 1.14-14.21 1.54-2.09.22-4.4 1.35-6.27-.47 3.22-2.06 45.93-10.69 57.58-11.94 1.16-.1 2.5-.76 3.64-.75" fill="none" stroke="#F2F2F2" stroke-miterlimit="10" stroke-width="2" transform="translate(-3.28 -35.12)"></path></svg>
