<svg width="30" height="30" viewBox="0 0 30 30" fill="none" xmlns="http://www.w3.org/2000/svg">
<path opacity="0.3" fill-rule="evenodd" clip-rule="evenodd" d="M3.75 20H6.25C6.94036 20 7.5 19.4404 7.5 18.75C7.5 18.0596 6.94036 17.5 6.25 17.5H3.75V15H6.25C6.94036 15 7.5 14.4404 7.5 13.75C7.5 13.0596 6.94036 12.5 6.25 12.5H3.75V10H6.25C6.94036 10 7.5 9.44036 7.5 8.75C7.5 8.05964 6.94036 7.5 6.25 7.5H3.75V5C3.75 4.30964 4.30964 3.75 5 3.75H12.5C13.1904 3.75 13.75 4.30964 13.75 5V23.75C13.75 24.4404 13.1904 25 12.5 25H5C4.30964 25 3.75 24.4404 3.75 23.75V20Z" fill="#2A2B32"/>
<path fill-rule="evenodd" clip-rule="evenodd" d="M20 3.75H23.75C25.1307 3.75 26.25 4.86929 26.25 6.25V19.0607C26.25 19.6662 26.0302 20.2512 25.6314 20.7069L22.3454 24.4624C22.1181 24.7222 21.7232 24.7485 21.4634 24.5212C21.4426 24.503 21.4229 24.4833 21.4046 24.4624L18.1186 20.7069C17.7198 20.2512 17.5 19.6662 17.5 19.0607V6.25C17.5 4.86929 18.6193 3.75 20 3.75Z" fill="#2A2B32"/>
</svg>
