<svg width="30" height="30" viewBox="0 0 30 30" fill="none" xmlns="http://www.w3.org/2000/svg">
<path d="M8.75 20H6.25C5.55964 20 5 20.5596 5 21.25V23.75C5 24.4404 5.55964 25 6.25 25H8.75C9.44036 25 10 24.4404 10 23.75V21.25C10 20.5596 9.44036 20 8.75 20Z" fill="#2A2B32"/>
<path d="M8.75 12.5H6.25C5.55964 12.5 5 13.0596 5 13.75V16.25C5 16.9404 5.55964 17.5 6.25 17.5H8.75C9.44036 17.5 10 16.9404 10 16.25V13.75C10 13.0596 9.44036 12.5 8.75 12.5Z" fill="#2A2B32"/>
<path d="M16.25 20H13.75C13.0596 20 12.5 20.5596 12.5 21.25V23.75C12.5 24.4404 13.0596 25 13.75 25H16.25C16.9404 25 17.5 24.4404 17.5 23.75V21.25C17.5 20.5596 16.9404 20 16.25 20Z" fill="#2A2B32"/>
<path opacity="0.3" d="M16.25 12.5H13.75C13.0596 12.5 12.5 13.0596 12.5 13.75V16.25C12.5 16.9404 13.0596 17.5 13.75 17.5H16.25C16.9404 17.5 17.5 16.9404 17.5 16.25V13.75C17.5 13.0596 16.9404 12.5 16.25 12.5Z" fill="#2A2B32"/>
<path d="M8.75 5H6.25C5.55964 5 5 5.55964 5 6.25V8.75C5 9.44036 5.55964 10 6.25 10H8.75C9.44036 10 10 9.44036 10 8.75V6.25C10 5.55964 9.44036 5 8.75 5Z" fill="#2A2B32"/>
<path d="M23.75 20H21.25C20.5596 20 20 20.5596 20 21.25V23.75C20 24.4404 20.5596 25 21.25 25H23.75C24.4404 25 25 24.4404 25 23.75V21.25C25 20.5596 24.4404 20 23.75 20Z" fill="#2A2B32"/>
</svg>
