<svg width="30" height="30" viewBox="0 0 30 30" fill="none" xmlns="http://www.w3.org/2000/svg">
<path d="M6.61611 8.38388C6.12796 7.89573 6.12796 7.10427 6.61611 6.61612C7.10427 6.12796 7.89573 6.12796 8.38388 6.61612L15.8839 14.1161C16.3571 14.5893 16.3737 15.3513 15.9214 15.8447L9.04644 23.3447C8.57995 23.8536 7.78924 23.8879 7.28034 23.4214C6.77144 22.955 6.73707 22.1642 7.20356 21.6553L13.2698 15.0376L6.61611 8.38388Z" fill="#2A2B32"/>
<path opacity="0.3" d="M26.25 21.25H16.25C15.5596 21.25 15 21.8096 15 22.5C15 23.1904 15.5596 23.75 16.25 23.75H26.25C26.9404 23.75 27.5 23.1904 27.5 22.5C27.5 21.8096 26.9404 21.25 26.25 21.25Z" fill="#2A2B32"/>
</svg>
